<svg xmlns="http://www.w3.org/2000/svg" xmlns:xlink="http://www.w3.org/1999/xlink" width="100%" stroke-linecap="round" font-family="Segoe UI" font-size="12" viewbox="0,0,482,190" style="max-width:482"><rect width="481.917" height="189.96" fill="#FFF"/><g transform="translate(-211,51)"><g id="Robot-&gt;Navigator"><path fill="none" stroke="#A0A0A0" stroke-width="1" d="M 435.716666463216,67.544564917977 L 516.763149931319,91.1215969395774"/><path fill="#A0A0A0" stroke="#A0A0A0" stroke-linejoin="round" stroke-width="1" d="M 525.404911227199,93.635550341099 L 516.920266854675,87.0014859856836 C 517.135587472285,89.8413360068543 516.390712390353,92.4018578723004 514.685641608878,94.6830515820218 z"/><text x="469.639" y="72.32" fill="#A0A0A0">get drink</text></g><g id="Navigator-&gt;MockStorage"><path fill="none" stroke="#A0A0A0" stroke-width="1" d="M 571.103251271794,92 L 617.076221610208,2.95700641664881"/><path fill="#A0A0A0" stroke="#A0A0A0" stroke-linejoin="round" stroke-width="1" d="M 621.205092640967,-5.04001953124998 L 613.063224407725,2.01051106385619 C 615.891477025335,2.34532181949946 618.260966195082,3.56869101379815 620.171691916968,5.68061864675228 z"/><text x="565.673" y="43.551" fill="#A0A0A0">store</text></g><g id="Navigator1-&gt;MockStorage"><path fill="none" stroke="#A0A0A0" stroke-width="1" d="M 440.38,-18.02 L 573.896666666667,-18.02"/><path fill="#A0A0A0" stroke="#A0A0A0" stroke-linejoin="round" stroke-width="1" d="M 582.896666666667,-18.02 L 572.896666666667,-22.02 C 573.896666666667,-19.3533333333333 573.896666666667,-16.6866666666666 572.896666666667,-14.02 z"/><text x="460.958" y="-25.03" fill="#A0A0A0">pending request?</text></g><g id="Navigator1-&gt;Robot"><path fill="none" stroke="#A0A0A0" stroke-width="1" d="M 402.495835444685,-5.03999999999995 L 407.279557987493,38.0549410876078"/><path fill="#A0A0A0" stroke="#A0A0A0" stroke-linejoin="round" stroke-width="1" d="M 408.272497685198,46.9999995422363 L 411.144812889805,36.6197391714469 C 408.604751832623,37.90783891017 405.954364142363,38.2020432650455 403.193649819024,37.5023522360734 z"/><text x="408.888" y="21.257" fill="#A0A0A0">completed request</text></g><g id="FailoverDriver-&gt;Navigator"><path fill="none" stroke="#A0A0A0" stroke-width="1" d="M 323.286643880208,105.819375658248 L 516.076721201347,105.148230010893"/><path fill="#A0A0A0" stroke="#A0A0A0" stroke-linejoin="round" stroke-width="1" d="M 525.076666666667,105.116899175253 L 515.062802444916,101.151735452488 C 516.072079596067,103.814904756771 516.081362806627,106.481555265014 515.090652076595,109.151686977217 z"/><text x="394.175" y="98.474" fill="#A0A0A0">terminate</text></g><g id="FailoverDriver-&gt;Navigator1"><path fill="none" stroke="#A0A0A0" stroke-width="1" d="M 290.114065277525,93.0000109863281 L 381.722551880262,1.32622786453897"/><path fill="#A0A0A0" stroke="#A0A0A0" stroke-linejoin="round" stroke-width="1" d="M 388.08424526935,-5.03999999999997 L 378.186262452791,-0.79383276788476 C 380.779407011442,0.383754769859248 382.665696749083,2.2687009592187 383.845131665714,4.8610058001936 z"/><text x="302.06" y="42.739" fill="#A0A0A0">create</text></g><g id="Robot"><rect width="52.007" height="25.96" x="383.71" y="47" fill="#FFF" stroke="#A5A6A9" stroke-width="1" rx="3" ry="3"/><text x="393.71" y="64.95" fill="#3D3D3D">Robot</text></g><g id="Navigator"><rect width="78.65" height="25.96" x="525.077" y="92" fill="#E51400" stroke="#A5A6A9" stroke-width="1" rx="3" ry="3"/><text x="535.077" y="109.95" fill="#FFF">Navigator1</text></g><g id="MockStorage"><rect width="90.02" height="25.96" x="582.897" y="-31" fill="#FFF" stroke="#A5A6A9" stroke-width="1" rx="3" ry="3"/><text x="592.897" y="-13.05" fill="#3D3D3D">MockStorage</text></g><g id="Navigator1"><rect width="78.65" height="25.96" x="361.73" y="-31" fill="#FFF" stroke="#A5A6A9" stroke-width="1" rx="3" ry="3"/><text x="371.73" y="-13.05" fill="#3D3D3D">Navigator2</text></g><g id="FailoverDriver"><rect width="92.287" height="25.96" x="231" y="93" fill="#FFF" stroke="#A5A6A9" stroke-width="1" rx="3" ry="3"/><text x="241" y="110.95" fill="#3D3D3D">FailoverDriver</text></g></g></svg>