<svg xmlns="http://www.w3.org/2000/svg" xmlns:xlink="http://www.w3.org/1999/xlink" width="604.85" height="476.098" stroke-linecap="round" font-family="Segoe UI" font-size="12"><rect width="604.85" height="476.098" fill="#FFF"/><g transform="translate(5.52836054484035,-13.7824173863873)"><g id="AzureServiceBus-&gt;Raft.AzureClient.dll"><path fill="none" stroke="#A0A0A0" stroke-width="1" d="M 307.722983881979,267.662959594727 L 308.034798293784,258.610980825127 A 477.121334998344,477.121334998344 3.14159265358979 0 0 308.247819834489,250.34644203675 A 1066.87085616586,1066.87085616586 3.14159265358979 0 0 308.357205760152,242.079633784949 L 308.361109105136,241.662465750746"/><path fill="#A0A0A0" stroke="#A0A0A0" stroke-linejoin="round" stroke-width="1" d="M 308.445316341242,232.662859695958 L 304.351927832329,242.624996540787 C 307.027834134056,241.649990604656 309.694384076216,241.674940896836 312.351577658808,242.699847417326 z"/></g><g id="AzureServiceBus-&gt;Raft.AzureClient.dll(Server)"><path fill="none" stroke="#A0A0A0" stroke-width="1" d="M 346.564141521842,293.622959594727 L 370.917294149744,302.814667619877 A 209.548389378654,209.548389378654 3.14159265358979 0 0 379.606966141385,305.877933106749 A 80.726006788566,80.726006788566 0 0 1 388.172141496713,309.239029245665 L 390.021267717885,310.089249374707"/><path fill="#A0A0A0" stroke="#A0A0A0" stroke-linejoin="round" stroke-width="1" d="M 398.198316192327,313.84902041117 L 390.783716125819,306.037253270904 C 390.578270834398,308.877834785901 389.464264601372,311.300663963514 387.441697426741,313.305740803741 z"/></g><g id="AzureServiceBus-&gt;Raft.AzureClient.dll(Server2)"><path fill="none" stroke="#A0A0A0" stroke-width="1" d="M 279.055786396318,293.622959594727 L 242.403838904127,308.141149099994 A 1965.84811154589,1965.84811154589 3.14159265358979 0 0 227.662397423292,314.049375160186 A 1965.84811154552,1965.84811154552 3.14159265358979 0 0 212.969166936393,320.076498020226 L 203.907798754373,323.836278083934"/><path fill="#A0A0A0" stroke="#A0A0A0" stroke-linejoin="round" stroke-width="1" d="M 195.594972788493,327.28546994015 L 206.364420242233,327.147623862524 C 204.418790140479,325.067807856658 203.396807368267,322.604748311211 203.298471925597,319.758445226186 z"/></g><g id="Raft.AzureClient.dll-&gt;AzureServiceBus"><path fill="none" stroke="#A0A0A0" stroke-width="1.5" d="M 302.441185434324,232.662859695958 L 302.352759782367,242.641316269585 A 1126.43942579751,1126.43942579751 0 0 1 302.259923790078,250.231336102463 A 364.680373196237,364.680373196237 0 0 1 302.062548216663,257.818989008281 L 302.031585164733,258.668925753586"/><path fill="#A0A0A0" stroke="#A0A0A0" stroke-linejoin="round" stroke-width="1" d="M 301.703934032546,267.662959594727 L 306.065339219927,257.815211385542 C 303.364034622679,258.717466662058 300.699135706786,258.620384845114 298.070642472247,257.52396593471 z"/></g><g id="Raft.AzureClient.dll(Server)-&gt;AzureServiceBus"><path fill="none" stroke="#A0A0A0" stroke-width="1" d="M 398.198316192327,320.550166024332 L 386.103830466368,314.871265877923 A 73.24332979758,73.24332979758 3.14159265358979 0 0 377.521459126899,311.48350995642 A 192.67802449544,192.67802449544 0 0 1 368.798579561329,308.428137891718 L 337.992912501931,296.801031477349"/><path fill="#A0A0A0" stroke="#A0A0A0" stroke-linejoin="round" stroke-width="1" d="M 329.57270709417,293.622959594727 L 337.516014488295,300.896464089978 C 337.522087037839,298.048469315535 338.463737966023,295.553593639162 340.340967272847,293.411837060857 z"/></g><g id="Raft.AzureClient.dll(Server2)-&gt;AzureServiceBus"><path fill="none" stroke="#A0A0A0" stroke-width="1" d="M 195.594972788493,320.78948407185 L 210.669705698916,314.534614042973 A 1971.84811154367,1971.84811154367 0 0 1 225.407781656024,308.489095694008 A 1971.84811154531,1971.84811154531 0 0 1 240.1942157527,302.562837031933 L 254.395947363577,296.937394321867"/><path fill="#A0A0A0" stroke="#A0A0A0" stroke-linejoin="round" stroke-width="1" d="M 262.763415465669,293.622959594727 L 251.993146584615,293.586790135064 C 253.904919996593,295.697769417853 254.886974730561,298.177019225881 254.939310786518,301.024539559146 z"/></g><g id="Raft.AzureClient.dll"><rect width="181.123" height="198.88" x="211" y="33.782" fill="#EEE" stroke="#A5A6A9" stroke-width="1" rx="5" ry="5"/><text x="246" y="51.732" fill="#000">Raft.Azure.dll (Client)</text><rect width="171.123" height="165.92" x="216" y="61.742" fill="#FFF" stroke="#A5A6A9" stroke-width="1"/><g id="AzureMessageReceiver-&gt;Client"><path fill="none" stroke="#A0A0A0" stroke-width="1" d="M 301.647849896207,99.7425274658203 L 301.793986356229,121.742747984521"/><path fill="#A0A0A0" stroke="#A0A0A0" stroke-linejoin="round" stroke-width="1" d="M 301.853767535434,130.742549438477 L 305.787255760297,120.716200632213 C 303.127290275333,121.733891513528 300.460682437124,121.751604455515 297.78743224567,120.769339458173 z"/></g><g id="Client-&gt;AzureClusterManager1"><path fill="none" stroke="#A0A0A0" stroke-width="1" d="M 301.852237775747,156.702549438477 L 301.710267236255,177.703005946714"/><path fill="#A0A0A0" stroke="#A0A0A0" stroke-linejoin="round" stroke-width="1" d="M 301.649425432261,186.702800292969 L 305.716936035034,176.730069598905 C 303.043570102367,177.712019547305 300.376964370143,177.693992346122 297.717118838363,176.675987995355 z"/></g><g id="AzureClusterManager1"><rect width="134.44" height="25.96" x="234.342" y="186.703" fill="#FFF" stroke="#A5A6A9" stroke-width="1" rx="3" ry="3"/><text x="244.342" y="204.653" fill="#3D3D3D">AzureClusterManager</text></g><g id="AzureMessageReceiver"><rect width="141.123" height="25.96" x="231" y="73.783" fill="#FFF" stroke="#A5A6A9" stroke-width="1" rx="3" ry="3"/><text x="241" y="91.733" fill="#3D3D3D">AzureMessageReceiver</text></g><g id="Client"><rect width="71.133" height="25.96" x="266.373" y="130.743" fill="#FFF" stroke="#A5A6A9" stroke-width="1" rx="3" ry="3"/><text x="276.373" y="148.693" fill="#3D3D3D">RunClient</text></g></g><g id="Raft.AzureClient.dll(Server)"><rect width="181.123" height="197.88" x="398.198" y="272" fill="#EEE" stroke="#A5A6A9" stroke-width="1" rx="5" ry="5"/><text x="427.198" y="289.95" fill="#000">Raft.Azure.dll (Server 1)</text><rect width="171.123" height="164.92" x="403.198" y="299.96" fill="#FFF" stroke="#A5A6A9" stroke-width="1"/><g id="AzureMessageReceiver1-&gt;Server"><path fill="none" stroke="#A0A0A0" stroke-width="1" d="M 488.75999730278,337.960194447828 L 488.75999730278,358.960191209159"/><path fill="#A0A0A0" stroke="#A0A0A0" stroke-linejoin="round" stroke-width="1" d="M 488.75999730278,367.960189821158 L 492.75999730278,357.960189821158 C 490.093330636113,358.960191209159 487.426663969446,358.960191209159 484.75999730278,357.960189821158 z"/></g><g id="Server-&gt;AzureClusterManager"><path fill="none" stroke="#A0A0A0" stroke-width="1" d="M 488.75999730278,393.920185817546 L 488.75999730278,414.920182578877"/><path fill="#A0A0A0" stroke="#A0A0A0" stroke-linejoin="round" stroke-width="1" d="M 488.75999730278,423.920181190876 L 492.75999730278,413.920181190876 C 490.093330636113,414.920182578877 487.426663969446,414.920182578877 484.75999730278,413.920181190876 z"/></g><g id="AzureClusterManager"><rect width="134.44" height="25.96" x="421.54" y="423.92" fill="#FFF" stroke="#A5A6A9" stroke-width="1" rx="3" ry="3"/><text x="431.54" y="441.87" fill="#3D3D3D">AzureClusterManager</text></g><g id="AzureMessageReceiver1"><rect width="141.123" height="25.96" x="418.198" y="312" fill="#FFF" stroke="#A5A6A9" stroke-width="1" rx="3" ry="3"/><text x="428.198" y="329.95" fill="#3D3D3D">AzureMessageReceiver</text></g><g id="Server"><rect width="53.02" height="25.96" x="462.25" y="367.96" fill="#FFF" stroke="#A5A6A9" stroke-width="1" rx="3" ry="3"/><text x="472.25" y="385.91" fill="#3D3D3D">Server</text></g></g><g id="Raft.AzureClient.dll(Server2)"><rect width="181.123" height="197.88" x="14.472" y="266.623" fill="#EEE" stroke="#A5A6A9" stroke-width="1" rx="5" ry="5"/><text x="43.472" y="284.573" fill="#000">Raft.Azure.dll (Server 2)</text><rect width="171.123" height="164.92" x="19.472" y="294.583" fill="#FFF" stroke="#A5A6A9" stroke-width="1"/><g id="AzureMessageReceiver2-&gt;Server1"><path fill="none" stroke="#A0A0A0" stroke-width="1" d="M 105.033317565918,332.583278959704 L 105.033317565918,353.583280063442"/><path fill="#A0A0A0" stroke="#A0A0A0" stroke-linejoin="round" stroke-width="1" d="M 105.033317565918,362.583280536473 L 109.033317565918,352.583280536473 C 106.366650899251,353.583280063442 103.699984232585,353.583280063442 101.033317565918,352.583280536473 z"/></g><g id="Server1-&gt;AzureClusterManager2"><path fill="none" stroke="#A0A0A0" stroke-width="1" d="M 105.033317565918,388.543281900904 L 105.033317565918,409.543283004643"/><path fill="#A0A0A0" stroke="#A0A0A0" stroke-linejoin="round" stroke-width="1" d="M 105.033317565918,418.543283477673 L 109.033317565918,408.543283477673 C 106.366650899251,409.543283004643 103.699984232585,409.543283004643 101.033317565918,408.543283477673 z"/></g><g id="AzureClusterManager2"><rect width="134.44" height="25.96" x="37.813" y="418.543" fill="#FFF" stroke="#A5A6A9" stroke-width="1" rx="3" ry="3"/><text x="47.813" y="436.493" fill="#3D3D3D">AzureClusterManager</text></g><g id="AzureMessageReceiver2"><rect width="141.123" height="25.96" x="34.472" y="306.623" fill="#FFF" stroke="#A5A6A9" stroke-width="1" rx="3" ry="3"/><text x="44.472" y="324.573" fill="#3D3D3D">AzureMessageReceiver</text></g><g id="Server1"><rect width="53.02" height="25.96" x="78.523" y="362.583" fill="#FFF" stroke="#A5A6A9" stroke-width="1" rx="3" ry="3"/><text x="88.523" y="380.533" fill="#3D3D3D">Server</text></g></g><g id="AzureServiceBus"><rect width="113.04" height="25.96" x="247.158" y="267.663" fill="#FFF" stroke="#A5A6A9" stroke-width="1" rx="3" ry="3"/><text x="257.158" y="285.613" fill="#3D3D3D">Azure Service Bus</text></g></g></svg>